Format : MPEG-4
Codec ID : isom
File size : 702 MiB
Duration : 2h 34mn
Overall bit rate : 634 Kbps

Video
ID : 1
Format : AVC
Format/Info : Advanced Video Codec
Format profile : High@L2.1
Format settings, CABAC : Yes
Format settings, ReFrames : 3 frames
Codec ID : avc1
Codec ID/Info : Advanced Video Coding
Duration : 2h 34mn
Bit rate mode : Variable
Bit rate : 582 Kbps
Maximum bit rate : 2 371 Kbps
Width : 608 pixels
Height : 256 pixels
Display aspect ratio : 2.35:1
Frame rate mode : Constant
Frame rate : 23.976 fps
Resolution : 8 bits
Colorimetry : 4:2:0
Scan type : Progressive
Bits/(Pixel*Frame) : 0.156
Stream size : 645 MiB (92%)
Writing library : x264 core 80 r1376M 3feaec2
cplxblur=20.0 / qblur=0.5 / ip_ratio=1.40 / aq=1:1.00

Audio
ID : 2
Format : AAC
Format/Info : Advanced Audio Codec
Format version : Version 4
Format profile : LC
Format settings, SBR : No
Codec ID : 40
Duration : 2h 34mn
Bit rate mode : Variable
Bit rate : 48.0 Kbps
Maximum bit rate : 54.5 Kbps
Channel(s) : 2 channels
Channel positions : L R
Sampling rate : 48.0 KHz
Stream size : 53.6 MiB (8%)


screens:
 
http://freepicninja.com/view.php?picture=00055688
 
http://freepicninja.com/view.php?picture=00055689
 
http://freepicninja.com/view.php?picture=00055690
 
http://freepicninja.com/view.php?picture=00055691
 
http://freepicninja.com/view.php?picture=00055692


SEED N ENJOY!!